<svg width="1570" height="1216" viewBox="0 0 1570 1216" fill="none" xmlns="http://www.w3.org/2000/svg">
<g clip-path="url(#clip0_2_390)">
<rect width="1570" height="1216" fill="white"/>
<rect x="5" y="-3.05176e-05" width="1570" height="1216" fill="#F4F7FE"/>
<ellipse cx="1516.5" cy="173" rx="283.5" ry="283" fill="#E9EFFF"/>
<circle cx="1534" cy="518" r="12" fill="#1E57FF"/>
<circle cx="1546" cy="580" r="12" fill="#1E57FF"/>
<circle cx="1565" cy="658" r="21" fill="#1E57FF"/>
<circle cx="1492" cy="570" r="24" fill="#59C2C8"/>
<circle cx="115" cy="129" r="23" fill="#59C2C8"/>
<circle cx="157.5" cy="77.5" r="11.5" fill="#1557F4"/>
<circle cx="169.5" cy="137.5" r="11.5" fill="#1557F4"/>
<circle cx="211.5" cy="171.5" r="19.5" fill="#59C2C8"/>
<circle cx="155.5" cy="551.5" r="56.5" fill="#E9EFFF"/>
<circle cx="233" cy="603" r="21" fill="#E9EFFF"/>
<circle cx="196.5" cy="658.5" r="15.5" fill="#E9EFFF"/>
<path d="M168.748 -359.466C353.13 -40.974 556.715 115.078 716.657 198.7C850.001 268.405 898.931 259.476 1002.57 339.184C1227.46 512.162 1419.72 879.295 1280.66 1092.06C1212.16 1196.87 1102.64 1178.32 911.671 1252.18C739.88 1318.62 510.826 1458.15 288.195 1785.18" stroke="#526CCD" stroke-opacity="0.58" stroke-miterlimit="10"/>
<path d="M211.957 -365.254C376.169 -53.1981 569.04 102.594 719.729 187.548C846.553 259.024 893.04 259.41 996.006 345.142C1212.01 524.989 1395.26 869.371 1267.43 1080.72C1201.59 1189.58 1095.69 1182.95 906.437 1264.31C739.82 1335.95 515.262 1476.95 294.273 1798.67" stroke="#526CCD" stroke-opacity="0.58" stroke-miterlimit="10"/>
<path d="M255.161 -371.041C399.207 -65.4286 581.429 90.2386 722.805 176.414C843.246 249.827 887.133 259.185 989.448 351.119C1196.7 537.345 1371.19 859.981 1254.21 1069.41C1191.01 1182.54 1088.82 1187.42 901.214 1276.47C739.787 1353.1 519.722 1495.76 300.387 1812.19" stroke="#526CCD" stroke-opacity="0.58" stroke-miterlimit="10"/>
<path d="M298.37 -376.829C422.251 -77.6602 593.884 78.0534 725.915 165.275C840.067 240.729 881.239 258.776 982.885 357.12C1181.58 549.268 1347.53 851.09 1240.99 1058.11C1180.46 1175.73 1082.01 1191.72 895.986 1288.64C739.754 1370.03 524.182 1514.6 306.479 1825.69" stroke="#526CCD" stroke-opacity="0.58" stroke-miterlimit="10"/>
<path d="M341.573 -382.614C445.281 -89.8559 606.371 66.0784 728.96 154.148C837.008 231.779 875.384 258.259 976.319 363.063C1166.63 560.718 1324.29 842.588 1227.75 1046.76C1169.92 1169.08 1075.21 1195.79 890.75 1300.76C739.699 1386.72 528.63 1533.38 312.595 1839.16" stroke="#526CCD" stroke-opacity="0.58" stroke-miterlimit="10"/>
<path d="M384.777 -388.4C468.316 -102.111 618.899 54.3259 732.036 143.014C834.081 223.005 869.58 257.506 969.754 369.04C1151.9 571.826 1301.49 834.51 1214.53 1035.43C1159.47 1162.66 1068.42 1199.65 885.52 1312.91C739.612 1403.24 533.088 1552.19 318.658 1852.67" stroke="#526CCD" stroke-opacity="0.58" stroke-miterlimit="10"/>
<path d="M427.981 -394.187C491.324 -114.337 631.406 42.851 735.112 131.88C831.268 214.427 863.856 256.635 963.194 375.01C1137.4 582.613 1279.14 826.778 1201.31 1024.11C1149.13 1156.4 1061.61 1203.38 880.295 1325.06C739.472 1419.57 537.55 1571.03 324.755 1866.16" stroke="#526CCD" stroke-opacity="0.58" stroke-miterlimit="10"/>
<path d="M471.193 -399.952C514.389 -126.547 643.895 31.7024 738.189 120.77C828.542 206.11 858.24 255.673 956.636 381.004C1123.13 593.134 1257.22 819.38 1188.08 1012.81C1138.93 1150.35 1054.75 1206.89 875.067 1337.23C739.271 1435.71 542.021 1589.81 330.846 1879.66" stroke="#526CCD" stroke-opacity="0.58" stroke-miterlimit="10"/>
<path d="M514.392 -405.763C537.423 -138.802 656.293 20.8433 741.266 109.611C825.876 198.028 852.761 254.485 950.066 386.957C1109.09 603.39 1235.72 812.2 1174.86 1001.47C1128.9 1144.41 1047.8 1210.17 869.832 1349.36C738.993 1451.69 546.454 1608.62 336.943 1893.2" stroke="#526CCD" stroke-opacity="0.58" stroke-miterlimit="10"/>
<path d="M557.578 -411.547C560.444 -151.024 668.546 10.3611 744.324 98.4797C823.202 190.209 847.335 253.238 943.488 392.93C1095.26 613.434 1214.61 805.224 1161.61 990.145C1119.07 1138.6 1040.73 1213.29 864.583 1361.51C738.607 1467.51 550.895 1627.44 343.012 1906.67" stroke="#526CCD" stroke-opacity="0.58" stroke-miterlimit="10"/>
<path d="M600.806 -417.335C583.506 -163.223 680.659 0.240234 747.419 87.3522C820.517 182.725 842.12 251.889 936.941 398.907C1081.69 623.336 1193.93 798.423 1148.41 978.822C1109.52 1132.92 1033.57 1216.22 859.371 1373.66C738.163 1483.2 555.372 1646.25 349.135 1920.17" stroke="#526CCD" stroke-opacity="0.58" stroke-miterlimit="10"/>
<path d="M644.009 -423.122C606.532 -175.484 692.512 -9.52686 750.493 76.218C817.677 175.561 837.046 250.471 930.38 404.877C1068.32 633.11 1173.6 791.748 1135.18 967.499C1100.24 1127.34 1026.24 1218.98 854.146 1385.81C737.598 1498.77 559.823 1665.06 355.22 1933.67" stroke="#526CCD" stroke-opacity="0.58" stroke-miterlimit="10"/>
<path d="M687.219 -428.91C629.571 -187.714 704.072 -18.9744 753.575 65.0837C814.606 168.72 832.118 248.926 923.82 410.854C1055.17 642.791 1153.63 785.145 1121.95 956.183C1091.28 1121.8 1018.75 1221.59 848.915 1397.96C736.927 1514.25 564.281 1683.87 361.312 1947.17" stroke="#526CCD" stroke-opacity="0.58" stroke-miterlimit="10"/>
<path d="M730.421 -434.697C652.609 -199.938 715.294 -28.1413 756.649 53.9496C811.176 162.187 827.361 247.342 917.251 416.813C1042.2 652.386 1133.94 778.572 1108.73 944.847C1082.7 1116.34 1011.06 1224.04 843.681 1410.09C736.139 1529.64 568.719 1702.68 367.42 1960.66" stroke="#526CCD" stroke-opacity="0.58" stroke-miterlimit="10"/>
<path d="M773.625 -440.484C675.641 -212.168 726.14 -37.1016 759.721 42.7912C807.252 155.891 822.765 245.684 910.689 422.777C1029.43 661.946 1114.62 771.984 1095.5 933.512C1074.51 1110.88 1003.18 1226.37 838.431 1422.23C735.216 1544.95 573.169 1721.48 373.474 1974.15" stroke="#526CCD" stroke-opacity="0.58" stroke-miterlimit="10"/>
<path d="M816.834 -446.272C698.683 -224.368 736.588 -45.9399 762.799 31.6817C802.698 149.834 818.346 244.031 904.126 428.772C1016.86 671.495 1095.55 765.394 1082.28 922.212C1066.78 1105.44 995.114 1228.62 833.227 1434.4C734.221 1560.25 577.648 1740.31 379.592 1987.66" stroke="#526CCD" stroke-opacity="0.58" stroke-miterlimit="10"/>
</g>
<defs>
<clipPath id="clip0_2_390">
<rect width="1570" height="1216" fill="white"/>
</clipPath>
</defs>
</svg>
