<svg width="415" height="96" viewBox="0 0 415 96" fill="none" xmlns="http://www.w3.org/2000/svg">
<path d="M38.208 39.536C38.208 42.1387 37.6107 44.528 36.416 46.704C35.2213 48.8373 33.3867 50.5653 30.912 51.888C28.4373 53.2107 25.3653 53.872 21.696 53.872H14.912V70H3.968V25.072H21.696C25.28 25.072 28.3093 25.6907 30.784 26.928C33.2587 28.1653 35.1147 29.872 36.352 32.048C37.5893 34.224 38.208 36.72 38.208 39.536ZM20.864 45.168C22.9547 45.168 24.512 44.6773 25.536 43.696C26.56 42.7147 27.072 41.328 27.072 39.536C27.072 37.744 26.56 36.3573 25.536 35.376C24.512 34.3947 22.9547 33.904 20.864 33.904H14.912V45.168H20.864ZM54.8495 40.24C56.1295 38.2773 57.7295 36.7413 59.6495 35.632C61.5695 34.48 63.7028 33.904 66.0495 33.904V45.488H63.0415C60.3108 45.488 58.2628 46.0853 56.8975 47.28C55.5322 48.432 54.8495 50.48 54.8495 53.424V70H43.9055V34.288H54.8495V40.24ZM87.5365 70.512C84.0378 70.512 80.8805 69.7653 78.0645 68.272C75.2912 66.7787 73.0938 64.6453 71.4725 61.872C69.8938 59.0987 69.1045 55.856 69.1045 52.144C69.1045 48.4747 69.9152 45.2533 71.5365 42.48C73.1578 39.664 75.3765 37.5093 78.1925 36.016C81.0085 34.5227 84.1658 33.776 87.6645 33.776C91.1632 33.776 94.3205 34.5227 97.1365 36.016C99.9525 37.5093 102.171 39.664 103.793 42.48C105.414 45.2533 106.225 48.4747 106.225 52.144C106.225 55.8133 105.393 59.056 103.729 61.872C102.107 64.6453 99.8672 66.7787 97.0085 68.272C94.1925 69.7653 91.0352 70.512 87.5365 70.512ZM87.5365 61.04C89.6272 61.04 91.3978 60.272 92.8485 58.736C94.3418 57.2 95.0885 55.0027 95.0885 52.144C95.0885 49.2853 94.3632 47.088 92.9125 45.552C91.5045 44.016 89.7552 43.248 87.6645 43.248C85.5312 43.248 83.7605 44.016 82.3525 45.552C80.9445 47.0453 80.2405 49.2427 80.2405 52.144C80.2405 55.0027 80.9232 57.2 82.2885 58.736C83.6965 60.272 85.4458 61.04 87.5365 61.04ZM117.47 30.576C115.551 30.576 113.972 30.0213 112.735 28.912C111.54 27.76 110.943 26.352 110.943 24.688C110.943 22.9813 111.54 21.5733 112.735 20.464C113.972 19.312 115.551 18.736 117.47 18.736C119.348 18.736 120.884 19.312 122.079 20.464C123.316 21.5733 123.935 22.9813 123.935 24.688C123.935 26.352 123.316 27.76 122.079 28.912C120.884 30.0213 119.348 30.576 117.47 30.576ZM122.975 74.608C122.975 79.0027 121.865 82.16 119.647 84.08C117.428 86.0427 114.335 87.024 110.367 87.024H106.078V77.744H108.703C109.897 77.744 110.751 77.5093 111.263 77.04C111.775 76.5707 112.031 75.8027 112.031 74.736V34.288H122.975V74.608ZM164.507 51.568C164.507 52.592 164.443 53.6587 164.315 54.768H139.547C139.718 56.9867 140.422 58.6933 141.659 59.888C142.939 61.04 144.496 61.616 146.331 61.616C149.062 61.616 150.96 60.464 152.027 58.16H163.675C163.078 60.5067 161.99 62.6187 160.411 64.496C158.875 66.3733 156.934 67.8453 154.587 68.912C152.24 69.9787 149.616 70.512 146.715 70.512C143.216 70.512 140.102 69.7653 137.371 68.272C134.64 66.7787 132.507 64.6453 130.971 61.872C129.435 59.0987 128.667 55.856 128.667 52.144C128.667 48.432 129.414 45.1893 130.907 42.416C132.443 39.6427 134.576 37.5093 137.307 36.016C140.038 34.5227 143.174 33.776 146.715 33.776C150.171 33.776 153.243 34.5013 155.931 35.952C158.619 37.4027 160.71 39.472 162.203 42.16C163.739 44.848 164.507 47.984 164.507 51.568ZM153.307 48.688C153.307 46.8107 152.667 45.3173 151.387 44.208C150.107 43.0987 148.507 42.544 146.587 42.544C144.752 42.544 143.195 43.0773 141.915 44.144C140.678 45.2107 139.91 46.7253 139.611 48.688H153.307ZM168.105 52.144C168.105 48.432 168.851 45.1893 170.345 42.416C171.881 39.6427 173.993 37.5093 176.681 36.016C179.411 34.5227 182.526 33.776 186.025 33.776C190.505 33.776 194.238 34.9493 197.225 37.296C200.254 39.6427 202.238 42.9493 203.177 47.216H191.529C190.547 44.4853 188.649 43.12 185.833 43.12C183.827 43.12 182.227 43.9093 181.033 45.488C179.838 47.024 179.241 49.2427 179.241 52.144C179.241 55.0453 179.838 57.2853 181.033 58.864C182.227 60.4 183.827 61.168 185.833 61.168C188.649 61.168 190.547 59.8027 191.529 57.072H203.177C202.238 61.2533 200.254 64.5387 197.225 66.928C194.195 69.3173 190.462 70.512 186.025 70.512C182.526 70.512 179.411 69.7653 176.681 68.272C173.993 66.7787 171.881 64.6453 170.345 61.872C168.851 59.0987 168.105 55.856 168.105 52.144ZM228.935 60.72V70H223.367C219.399 70 216.305 69.04 214.087 67.12C211.868 65.1573 210.759 61.9787 210.759 57.584V43.376H206.407V34.288H210.759V25.584H221.703V34.288H228.871V43.376H221.703V57.712C221.703 58.7787 221.959 59.5467 222.471 60.016C222.983 60.4853 223.836 60.72 225.031 60.72H228.935Z" fill="#575FDC"/>
<path d="M251.287 70.448C248.001 70.448 245.057 69.9147 242.455 68.848C239.852 67.7813 237.761 66.2027 236.183 64.112C234.647 62.0213 233.836 59.504 233.751 56.56H245.399C245.569 58.224 246.145 59.504 247.127 60.4C248.108 61.2533 249.388 61.68 250.967 61.68C252.588 61.68 253.868 61.3173 254.807 60.592C255.745 59.824 256.215 58.7787 256.215 57.456C256.215 56.3467 255.831 55.4293 255.063 54.704C254.337 53.9787 253.42 53.3813 252.311 52.912C251.244 52.4427 249.708 51.9093 247.703 51.312C244.801 50.416 242.433 49.52 240.599 48.624C238.764 47.728 237.185 46.4053 235.863 44.656C234.54 42.9067 233.879 40.624 233.879 37.808C233.879 33.6267 235.393 30.3627 238.423 28.016C241.452 25.6267 245.399 24.432 250.263 24.432C255.212 24.432 259.201 25.6267 262.231 28.016C265.26 30.3627 266.881 33.648 267.095 37.872H255.255C255.169 36.4213 254.636 35.2907 253.655 34.48C252.673 33.6267 251.415 33.2 249.878 33.2C248.556 33.2 247.489 33.5627 246.679 34.288C245.868 34.9707 245.463 35.9733 245.463 37.296C245.463 38.7467 246.145 39.8773 247.51 40.688C248.876 41.4987 251.009 42.3733 253.911 43.312C256.812 44.2933 259.159 45.232 260.951 46.128C262.785 47.024 264.364 48.3253 265.687 50.032C267.009 51.7387 267.671 53.936 267.671 56.624C267.671 59.184 267.009 61.5093 265.687 63.6C264.407 65.6907 262.529 67.3547 260.055 68.592C257.58 69.8293 254.657 70.448 251.287 70.448ZM310.886 34.288L288.486 86.96H276.71L284.902 68.784L270.373 34.288H282.598L290.854 56.624L299.046 34.288H310.886ZM336.603 33.904C340.784 33.904 344.112 35.2693 346.587 38C349.104 40.688 350.363 44.4 350.363 49.136V70H339.483V50.608C339.483 48.2187 338.864 46.3627 337.627 45.04C336.39 43.7173 334.726 43.056 332.635 43.056C330.544 43.056 328.88 43.7173 327.643 45.04C326.406 46.3627 325.787 48.2187 325.787 50.608V70H314.843V34.288H325.787V39.024C326.896 37.4453 328.39 36.208 330.267 35.312C332.144 34.3733 334.256 33.904 336.603 33.904ZM355.792 52.144C355.792 48.432 356.539 45.1893 358.032 42.416C359.568 39.6427 361.68 37.5093 364.368 36.016C367.099 34.5227 370.213 33.776 373.712 33.776C378.192 33.776 381.925 34.9493 384.912 37.296C387.941 39.6427 389.925 42.9493 390.864 47.216H379.216C378.235 44.4853 376.336 43.12 373.52 43.12C371.515 43.12 369.915 43.9093 368.72 45.488C367.525 47.024 366.928 49.2427 366.928 52.144C366.928 55.0453 367.525 57.2853 368.72 58.864C369.915 60.4 371.515 61.168 373.52 61.168C376.336 61.168 378.235 59.8027 379.216 57.072H390.864C389.925 61.2533 387.941 64.5387 384.912 66.928C381.883 69.3173 378.149 70.512 373.712 70.512C370.213 70.512 367.099 69.7653 364.368 68.272C361.68 66.7787 359.568 64.6453 358.032 61.872C356.539 59.0987 355.792 55.856 355.792 52.144Z" fill="#31326A"/>
<circle cx="407" cy="62" r="8" fill="#61BCC1"/>
</svg>
